<?xml version="1.0" encoding="utf-8"?>
<!-- Generator: Adobe Illustrator 18.0.0, SVG Export Plug-In . SVG Version: 6.00 Build 0)  -->
<!DOCTYPE svg PUBLIC "-//W3C//DTD SVG 1.1//EN" "http://www.w3.org/Graphics/SVG/1.1/DTD/svg11.dtd">
<svg version="1.1" id="Calque_1" xmlns="http://www.w3.org/2000/svg" xmlns:xlink="http://www.w3.org/1999/xlink" x="0px" y="0px"
	 viewBox="0 0 558 374" enable-background="new 0 0 558 374" xml:space="preserve">
<path fill="#F295CF" d="M341.8,234.6c-5.9,17.9,4.3,29.9,10.9,43.1c7.7,15.4,16.6,30.6,21.3,47c3.9,13.6,3.2,29.1-11.2,38.9
	c-14.2,9.6-24.4,8.3-32.4-7c-10-19.1-18.9-39.1-26.1-59.4c-24.6-69.7-43.2-141-54.2-214.1c-2.1-13.7-2.1-28-1.1-41.9
	c0.6-7.7,3.9-16.2,8.5-22.5c10.1-13.9,27.2-12.4,31.7,3.6c5.6,20.2,7.5,41.5,10.3,62.4c1.8,13.4,1.8,26.9,3.5,40.3
	c0.8,6.4,3.6,12.5,6.5,22.2c16-17.6,30.1-32.6,43.7-48.1c25.6-29.1,55-51.4,95.8-53.2c3.4-0.1,6.7-0.4,10.1-0.4
	c1.4,0,2.7,0.7,8.2,2.2c-4.8,11.2-7.2,23.6-14.3,31.7c-15.3,17.2-33.2,32.1-49.9,48.1c-15.8,15.2-31.5,30.6-48.9,47.6
	c28.7,12.6,54.3,22.4,78.6,34.8c33.4,17.1,66.1,35.6,98.5,54.5c12.9,7.5,17.3,19.8,13.4,35c-2.7,10.5-8.3,17.4-19.1,14.7
	c-18.5-4.7-37.6-8.8-54.5-17.2c-22.3-11.2-42.5-26.6-63.9-39.6C387.5,245.1,366.9,234.8,341.8,234.6z"/>
<path fill="#F1AE29" d="M220.3,144.4c-5.4,67.4-20.2,132.2-66,185.3c-11,12.8-27.8,22.2-43.7,28.9c-17.2,7.3-26.3,2.3-32.9-15.3
	c-12.3-32.9-24.7-65.9-34.2-99.6c-12.6-44.9-22.5-90.6-33.4-136c-13.1-54.4,4-80.9,65.3-94.2c12.1-2.6,24.9-3.4,37.4-3.5
	c54.6-0.5,93.8,34.7,102.8,92.1C217.7,115.9,218.7,129.8,220.3,144.4z M116.5,282.6c49.3-55.4,63.2-116.5,48.3-184.3
	c-4.7-21.5-19.1-37.4-41.9-37.9c-17.8-0.4-35.8,4.9-53.6,8.6C57.9,71.2,53.6,79,53.7,91c0.7,51.9,10.3,101.7,33.6,148.2
	C94.9,254.3,106.2,267.5,116.5,282.6z"/>
</svg>
